<svg height="512" viewBox="0 0 128 128" width="512" xmlns="http://www.w3.org/2000/svg"><g><g><path d="m73.055 41.748h43.945v79.752h-43.945z" fill="#ba400f"/><path d="m11 25.906h68.055v95.594h-68.055z" fill="#dc4c12"/><path d="m34.92 87.125h20.214v29.375h-20.214z" fill="#6aa8fb"/><g fill="#eaeaf0"><g><path d="m85.736 65.343h9v9h-9z"/><path d="m101.319 65.343h9v9h-9z"/></g><g><path d="m85.736 81.624h9v9h-9z"/><path d="m101.319 81.624h9v9h-9z"/></g><g><path d="m85.736 97.905h9v9h-9z"/><path d="m101.319 97.905h9v9h-9z"/></g></g><g fill="#eaeaf0"><path d="m17.153 49.062h9v9h-9z"/><path d="m32.736 49.062h9v9h-9z"/><path d="m48.319 49.062h9v9h-9z"/><path d="m63.903 49.062h9v9h-9z"/><path d="m17.153 65.343h9v9h-9z"/><path d="m32.736 65.343h9v9h-9z"/><path d="m48.319 65.343h9v9h-9z"/><path d="m63.903 65.343h9v9h-9z"/></g><rect fill="#6aa8fb" height="32" rx="16" width="32" x="27.417" y="6.5"/><path d="m6.5 115.5h115v6h-115z" fill="#5c91d9"/></g><g fill="#0b1523"><path d="m117 83.75a1.751 1.751 0 0 0 -1.75 1.75v4.25a1.75 1.75 0 0 0 3.5 0v-4.25a1.751 1.751 0 0 0 -1.75-1.75z"/><path d="m73.055 92.5a1.751 1.751 0 0 0 -1.75 1.75v10.25a1.75 1.75 0 0 0 3.5 0v-10.25a1.751 1.751 0 0 0 -1.75-1.75z"/><path d="m26.152 47.312h-9a1.751 1.751 0 0 0 -1.75 1.75v9a1.751 1.751 0 0 0 1.75 1.75h9a1.75 1.75 0 0 0 1.75-1.75v-9a1.75 1.75 0 0 0 -1.75-1.75zm-1.75 9h-5.502v-5.5h5.5z"/><path d="m32.736 59.812h9a1.751 1.751 0 0 0 1.75-1.75v-9a1.751 1.751 0 0 0 -1.75-1.75h-9a1.751 1.751 0 0 0 -1.75 1.75v9a1.751 1.751 0 0 0 1.75 1.75zm1.75-9h5.5v5.5h-5.5z"/><path d="m48.319 59.812h9a1.75 1.75 0 0 0 1.75-1.75v-9a1.75 1.75 0 0 0 -1.75-1.75h-9a1.751 1.751 0 0 0 -1.75 1.75v9a1.751 1.751 0 0 0 1.75 1.75zm1.75-9h5.5v5.5h-5.5z"/><path d="m63.9 59.812h9a1.75 1.75 0 0 0 1.75-1.75v-9a1.75 1.75 0 0 0 -1.75-1.75h-9a1.751 1.751 0 0 0 -1.75 1.75v9a1.751 1.751 0 0 0 1.75 1.75zm1.75-9h5.5v5.5h-5.5z"/><path d="m96.486 65.343a1.75 1.75 0 0 0 -1.75-1.75h-9a1.75 1.75 0 0 0 -1.75 1.75v9a1.751 1.751 0 0 0 1.75 1.75h9a1.751 1.751 0 0 0 1.75-1.75zm-3.5 7.25h-5.5v-5.5h5.5z"/><path d="m112.069 65.343a1.749 1.749 0 0 0 -1.75-1.75h-9a1.75 1.75 0 0 0 -1.75 1.75v9a1.751 1.751 0 0 0 1.75 1.75h9a1.75 1.75 0 0 0 1.75-1.75zm-3.5 7.25h-5.5v-5.5h5.5z"/><path d="m96.486 81.624a1.751 1.751 0 0 0 -1.75-1.75h-9a1.751 1.751 0 0 0 -1.75 1.75v9a1.751 1.751 0 0 0 1.75 1.75h9a1.751 1.751 0 0 0 1.75-1.75zm-3.5 7.25h-5.5v-5.5h5.5z"/><path d="m112.069 81.624a1.75 1.75 0 0 0 -1.75-1.75h-9a1.751 1.751 0 0 0 -1.75 1.75v9a1.751 1.751 0 0 0 1.75 1.75h9a1.75 1.75 0 0 0 1.75-1.75zm-3.5 7.25h-5.5v-5.5h5.5z"/><path d="m94.736 96.155h-9a1.75 1.75 0 0 0 -1.75 1.75v9a1.751 1.751 0 0 0 1.75 1.75h9a1.751 1.751 0 0 0 1.75-1.75v-9a1.75 1.75 0 0 0 -1.75-1.75zm-1.75 9h-5.5v-5.5h5.5z"/><path d="m110.319 96.155h-9a1.75 1.75 0 0 0 -1.75 1.75v9a1.751 1.751 0 0 0 1.75 1.75h9a1.75 1.75 0 0 0 1.75-1.75v-9a1.749 1.749 0 0 0 -1.75-1.75zm-1.75 9h-5.5v-5.5h5.5z"/><path d="m26.152 63.593h-9a1.75 1.75 0 0 0 -1.75 1.75v9a1.751 1.751 0 0 0 1.75 1.75h9a1.75 1.75 0 0 0 1.75-1.75v-9a1.749 1.749 0 0 0 -1.75-1.75zm-1.75 9h-5.502v-5.5h5.5z"/><path d="m41.736 76.093a1.751 1.751 0 0 0 1.75-1.75v-9a1.75 1.75 0 0 0 -1.75-1.75h-9a1.75 1.75 0 0 0 -1.75 1.75v9a1.751 1.751 0 0 0 1.75 1.75zm-7.25-9h5.5v5.5h-5.5z"/><path d="m48.319 76.093h9a1.75 1.75 0 0 0 1.75-1.75v-9a1.749 1.749 0 0 0 -1.75-1.75h-9a1.75 1.75 0 0 0 -1.75 1.75v9a1.751 1.751 0 0 0 1.75 1.75zm1.75-9h5.5v5.5h-5.5z"/><path d="m63.9 76.093h9a1.75 1.75 0 0 0 1.75-1.75v-9a1.749 1.749 0 0 0 -1.75-1.75h-9a1.75 1.75 0 0 0 -1.75 1.75v9a1.751 1.751 0 0 0 1.75 1.75zm1.75-9h5.5v5.5h-5.5z"/><path d="m40.923 30.5c1.3 0 1.2-1.53 2.494-1.53s1.19 1.53 2.494 1.53c2.207 0 2.694-1.734 2.264-3.44-.168-.669-1.2-5.047-4.758-5.047s-4.59 4.378-4.759 5.047c-.43 1.705.058 3.44 2.265 3.44z"/><path d="m48.619 18.03c.448-1.61-.091-3.166-1.2-3.476s-2.378.745-2.826 2.355.091 3.166 1.2 3.475 2.378-.744 2.826-2.354z"/><path d="m50.711 22.835a1.81 1.81 0 0 0 .349-2.483 1.808 1.808 0 0 0 -2.482.35 1.808 1.808 0 0 0 -.35 2.482 1.809 1.809 0 0 0 2.483-.349z"/><path d="m41.04 20.384c1.112-.309 1.651-1.865 1.2-3.475s-1.713-2.665-2.826-2.355-1.651 1.866-1.2 3.476 1.713 2.664 2.826 2.354z"/><path d="m35.773 20.352a1.811 1.811 0 0 0 .35 2.483 1.808 1.808 0 0 0 2.482.349 1.808 1.808 0 0 0 -.349-2.482 1.81 1.81 0 0 0 -2.483-.35z"/><path d="m121.5 113.75h-2.75v-16.75a1.75 1.75 0 0 0 -3.5 0v16.75h-34.44v-70.25h34.44v34.5a1.75 1.75 0 0 0 3.5 0v-36.25a1.751 1.751 0 0 0 -1.75-1.75h-36.19v-14.09a1.751 1.751 0 0 0 -1.75-1.75h-17.978c.051-.547.085-1.1.085-1.66a17.761 17.761 0 0 0 -.772-5.192 1.75 1.75 0 0 0 -3.348 1.022 14.262 14.262 0 1 1 -3.912-6.252 1.75 1.75 0 1 0 2.388-2.559 17.75 17.75 0 0 0 -29.856 12.981c0 .56.033 1.113.084 1.66h-14.751a1.751 1.751 0 0 0 -1.75 1.75v87.84h-2.75a1.751 1.751 0 0 0 -1.75 1.75v6a1.751 1.751 0 0 0 1.75 1.75h115a1.751 1.751 0 0 0 1.75-1.75v-6a1.751 1.751 0 0 0 -1.75-1.75zm-108.75-86.09h13.687a17.745 17.745 0 0 0 33.959 0h16.914v86.09h-20.425v-26.625a1.751 1.751 0 0 0 -1.75-1.75h-20.215a1.751 1.751 0 0 0 -1.75 1.75v11.125a1.75 1.75 0 0 0 3.5 0v-9.375h16.715v24.875h-16.715v-6.25a1.75 1.75 0 0 0 -3.5 0v6.25h-20.42zm107 92.09h-111.5v-2.5h111.5z"/><path d="m110.319 51.812h-24.583a1.75 1.75 0 0 0 0 3.5h24.583a1.75 1.75 0 0 0 0-3.5z"/></g></g></svg>