<svg id="Capa_1" enable-background="new 0 0 512 512" height="512" viewBox="0 0 512 512" width="512" xmlns="http://www.w3.org/2000/svg"><g><circle cx="256" cy="256" fill="#ff8759" r="256"/><g><path d="m511.968 258.549-136.734-136.734-6.549 8.14-73.698-73.698-159.233 88.498 26.134 26.134v71.871h-65.688l-14.383 9.052 37.1 37.1-22.717 146.238 54.052 54.051c32.234 14.641 68.038 22.799 105.748 22.799 140.533 0 254.598-113.242 255.968-253.451z" fill="#ff5b5b"/></g><path d="m415.8 435.15h-54.8l-11.52-10v-186.44h66.32z" fill="#7c8186"/><path d="m96.2 435.15h54.8l8.4-10v-186.44h-63.2z" fill="#9f9fa5"/><path d="m422.88 253.71h-71.88v-30h71.88c8.284 0 15 6.716 15 15 0 8.284-6.716 15-15 15z" fill="#40383f"/><path d="m89.12 253.71h71.88v-30h-71.88c-8.284 0-15 6.716-15 15 0 8.284 6.716 15 15 15z" fill="#554e56"/><g><path d="m250.104 36.85c-20.943 0-37.92 16.977-37.92 37.92v55.13h43.816v-93.05z" fill="#fff"/><path d="m299.816 74.77c0-20.943-16.977-37.92-37.92-37.92h-5.896v93.05h43.816z" fill="#e3eaee"/><path d="m151 133.71h105v301.44h-105z" fill="#fff"/><path d="m256 133.71h105v301.44h-105z" fill="#e3eaee"/></g><g fill="#9dcfff"><path d="m181 163.71h30v30h-30z"/><path d="m181 223.71h30v30h-30z"/><path d="m181 283.71h30v30h-30z"/></g><path d="m301 163.71h30v30h-30z" fill="#6aa8ff"/><path d="m301 223.71h30v30h-30z" fill="#6aa8ff"/><path d="m301 283.71h30v30h-30z" fill="#6aa8ff"/><path d="m256 435.15h-75v-91.38h75l20 45.69z" fill="#554e56"/><path d="m256 343.77h75v91.38h-75z" fill="#40383f"/><g><path d="m247.18 50.916v18.639h-18.639v17.64h18.639v18.639h8.82l6-27.747-6-27.171z" fill="#ca2e43"/><path d="m241 193.71h15l5-15-5-15h-15z" fill="#9dcfff"/><path d="m256 163.71h15v30h-15z" fill="#6aa8ff"/><path d="m241 253.71h15l10-15-10-15h-15z" fill="#9dcfff"/><path d="m241 313.71h15l10-15-10-15h-15z" fill="#9dcfff"/><path d="m256 283.71h15v30h-15z" fill="#6aa8ff"/><path d="m264.82 87.195h18.639v-17.64h-18.639v-18.639h-8.82v54.918h8.82z" fill="#ad2638"/><path d="m145.9 118.71c-8.284 0-15 6.716-15 15s6.716 15 15 15h110.1l10-15-10-15z" fill="#554e56"/><path d="m256 223.71h15v30h-15z" fill="#6aa8ff"/><path d="m366.1 118.71h-110.1v30h110.1c8.284 0 15-6.716 15-15s-6.716-15-15-15z" fill="#40383f"/></g></g></svg>