<svg height="512" viewBox="0 0 64 64" width="512" xmlns="http://www.w3.org/2000/svg"><g id="Filled_outline" data-name="Filled outline"><path d="m22 33h18v12l6 4-3 7h-6l2-5-15-2-3 5-6-3 2-6 5-2z" fill="#ad6327"/><path d="m30 3c8 0 15 5.923 15 14v6a10 10 0 0 1 -10 10h-10a10 10 0 0 1 -10-10v-6c0-8.525 6-14 15-14z" fill="#ad6327"/><path d="m20 20v-4a4.942 4.942 0 0 1 5-5 4.767 4.767 0 0 1 5 5 4.767 4.767 0 0 1 5-5 4.942 4.942 0 0 1 5 5v4l5 3a10 10 0 0 1 -10 10h-10a10 10 0 0 1 -10-10z" fill="#ffd782"/><path d="m45 23 4 1a4.165 4.165 0 0 0 5-4 4.165 4.165 0 0 0 -5-4l-4 1z" fill="#d3843d"/><path d="m15 23-4 1a4.165 4.165 0 0 1 -5-4 4.165 4.165 0 0 1 5-4l4 1z" fill="#d3843d"/><g fill="#ffd782"><path d="m37 56h11a0 0 0 0 1 0 0v5a0 0 0 0 1 0 0h-8a3 3 0 0 1 -3-3v-2a0 0 0 0 1 0 0z" transform="matrix(-1 0 0 -1 85 117)"/><path d="m21 54-6-3c-1.869-.935-4.925-.792-6 1l-1 2 11 5z"/><path d="m31 40a4 4 0 0 1 4 4v6.467l-8-1.067v-5.4a4 4 0 0 1 4-4z"/><path d="m57 41 2 2.5a3.2 3.2 0 0 1 -.5 4.5 3.2 3.2 0 0 1 -4.5-.5l-2-2.5z"/></g><path d="m22 33-8 1-3-4-4 4 4 5 11 1z" fill="#ad6327"/><path d="m7 34-2-2a3.535 3.535 0 0 1 .018-5 3.6 3.6 0 0 1 4.982 1l1 2z" fill="#ffd782"/><path d="m56 28h-4a2 2 0 0 0 0 4h2.67a1.329 1.329 0 0 1 1.33 1.33v.005a1.329 1.329 0 0 1 -.532 1.064l-2.343 1.757 2.625 3.282 3.25-2.438a4.267 4.267 0 0 0 1-3v-2a4 4 0 0 0 -4-4z" fill="#66342e"/><path d="m40 40 9 1 3 4 5-4-4-5-13-3z" fill="#ad6327"/><path d="m49 41-.9-.1-5.7 5.7 3.6 2.4 5.143-5.143z" fill="#66342e"/><path d="m30 29a6 6 0 0 1 -6-6 21.8 21.8 0 0 0 6 1 21.8 21.8 0 0 0 6-1 6 6 0 0 1 -6 6z" fill="#da1c4b"/><circle cx="35" cy="17" r="2"/><circle cx="25" cy="17" r="2"/><path d="m31 19h2v2h-2z"/><path d="m27 19h2v2h-2z"/><path d="m30 45h2v2h-2z"/><path d="m6.254 34.668 3.965 4.957a1 1 0 0 0 .691.375l10.09.913v1.41l-4.372 1.748a1.006 1.006 0 0 0 -.577.613l-1.673 5.016c-2.262-.646-5.066-.165-6.273 1.85l-1 2a1 1 0 0 0 .481 1.357l11 5a1 1 0 0 0 1.343-.538l1.971-4.925 2.62-4.366 13.074 1.743-1.519 3.809a.993.993 0 0 0 -.075.37v5a1 1 0 0 0 1 1h11a1 1 0 0 0 1-1v-2a4 4 0 0 0 -4-4h-.484l2.327-5.429 4.192-4.192 2.185 2.746a4.2 4.2 0 0 0 5.9.657l.02-.016a4.206 4.206 0 0 0 .638-5.89l-2-2.5-.606-.757 2.428-1.819a.951.951 0 0 0 .107-.093 5.172 5.172 0 0 0 1.293-3.707v-2a5.006 5.006 0 0 0 -5-5h-4a3 3 0 0 0 0 6h2.67a.333.333 0 0 1 .2.6l-1.843 1.38-12.027-2.775a11 11 0 0 0 4.918-7.944l2.861.715a4.913 4.913 0 0 0 1.076.118 5.127 5.127 0 0 0 3.212-1.148 5.09 5.09 0 0 0 -4.314-8.916l-2.825.706c-.685-7.68-7.561-13.736-15.928-13.736-9.11 0-15.362 5.469-15.943 13.734l-2.84-.71a5.092 5.092 0 1 0 .026 9.946l2.835-.709a11 11 0 0 0 5.14 8.079l-4.766.6-2.6-3.463-.96-1.92a1.034 1.034 0 0 0 -.088-.143 4.955 4.955 0 0 0 -3.322-1.99 4.044 4.044 0 0 0 -3.091.8 3.982 3.982 0 0 0 -1.406 2.876 4.81 4.81 0 0 0 1.308 3.607zm39.746-14.01c1.163-.451 3.269-.974 4.293.049l1.414-1.414c-1.635-1.635-4.135-1.236-5.707-.748v-.764l3.217-.8a3.091 3.091 0 1 1 .026 6.054l-3.243-.816zm-32-2.113c-1.572-.488-4.071-.887-5.707.748l1.414 1.414c1.087-1.085 3.27-.437 4.293-.045v1.557l-3.217.8a3.073 3.073 0 0 1 -2.6-5.41 3.152 3.152 0 0 1 1.964-.711 2.808 2.808 0 0 1 .613.067l3.24.816zm4.46 39.111-9.1-4.137.5-1c.738-1.229 3.2-1.369 4.7-.619l5.177 2.588zm15.54-8.332-4.667-.624-1.333-.176v-4.524a3 3 0 0 1 6 0zm11 7.676a2 2 0 0 1 2 2v1h-9v-3zm-2.659-2h-3.864l1.452-3.628a1 1 0 0 0 -.8-1.363l-3.129-.418v-5.591a5 5 0 0 0 -10 0v4.258l-1.868-.249a1 1 0 0 0 -.989.476l-2.524 4.206-4.4-2.2 1.581-4.735 4.57-1.827a1 1 0 0 0 .63-.929v-9h16v11a1 1 0 0 0 .445.832l5.308 3.539zm-1.341-10.535v-3.348l4.922.547-3.649 3.649zm4.873 3.248-1.9-1.268 4.493-4.494 1.36 1.812zm12.347-3.588a2.2 2.2 0 0 1 -.344 3.093l-.016.013a2.2 2.2 0 0 1 -3.078-.355l-1.376-1.72 3.438-2.75zm-2.153-8.925a2.333 2.333 0 0 0 -1.4-4.2h-2.667a1 1 0 0 1 0-2h4a3 3 0 0 1 3 3v2a3.377 3.377 0 0 1 -.664 2.248l-2.411 1.808-1.375-1.719zm-3.631 1.7 3.158 3.948-3.413 2.731-2.381-3.179a1 1 0 0 0 -.69-.394l-8.11-.906v-4.843zm-36.436-19.9c0-7.9 5.5-13 14-13 7.72 0 14 5.832 14 13v4.234l-3-1.8v-3.434a5.937 5.937 0 0 0 -6-6 5.816 5.816 0 0 0 -5 2.5 5.816 5.816 0 0 0 -5-2.5 5.937 5.937 0 0 0 -6 6v3.434l-3 1.8zm.028 6.549 4.972-2.983v-4.566a3.961 3.961 0 0 1 4-4 3.786 3.786 0 0 1 4 4h2a3.786 3.786 0 0 1 4-4 3.961 3.961 0 0 1 4 4v4.566l4.972 2.983a9 9 0 0 1 -8.972 8.451h-10a9 9 0 0 1 -8.972-8.451zm-5.136 7.973 2.308 3.078a1 1 0 0 0 .924.392l6.876-.859v4.772l-9.485-.863-3.175-3.968zm-5.246-3.742a1.952 1.952 0 0 1 1.232-.4 2.541 2.541 0 0 1 .344.024 2.935 2.935 0 0 1 1.924 1.125l.637 1.271-2.783 2.786-1.282-1.286a2.774 2.774 0 0 1 -.737-2.078 1.987 1.987 0 0 1 .665-1.442z"/><path d="m30 30a7.008 7.008 0 0 0 7-7 1 1 0 0 0 -1.315-.949 20.924 20.924 0 0 1 -5.685.949 20.924 20.924 0 0 1 -5.685-.949 1 1 0 0 0 -1.315.949 7.008 7.008 0 0 0 7 7zm0-5a21.19 21.19 0 0 0 4.81-.631 5 5 0 0 1 -9.62 0 21.19 21.19 0 0 0 4.81.631z"/></g></svg>